<svg width="16" height="16" viewBox="0 0 16 16" fill="none" xmlns="http://www.w3.org/2000/svg">
<path d="M14.5191 6.49536H2.00897C1.45394 6.49536 1.01245 6.05453 1.01245 5.49884C1.01245 4.94381 1.45329 4.50232 2.00897 4.50232H14.5197C15.0747 4.50232 15.5162 4.94316 15.5162 5.49884C15.5156 6.05451 15.0748 6.49536 14.5191 6.49536H14.5191Z" fill="#FC495D"/>
<path d="M13.5066 11.4917H0.996521C0.44149 11.4917 0 11.0509 0 10.4952C0 9.94015 0.440837 9.49866 0.996521 9.49866H13.5073C14.0623 9.49866 14.5038 9.93949 14.5038 10.4952C14.5191 11.0508 14.0623 11.4917 13.5066 11.4917H13.5066Z" fill="#FC495D"/>
<path d="M4.50812 16C4.459 16 4.40988 16 4.36139 15.9834C3.8223 15.9017 3.43059 15.3952 3.51225 14.8568L5.52061 0.86028C5.60227 0.305249 6.10883 -0.0705207 6.64727 0.0111399C7.18636 0.0928006 7.57807 0.599358 7.49641 1.1378L5.48804 15.1343C5.42233 15.6408 4.99808 16 4.50812 16L4.50812 16Z" fill="#FC495D"/>
<path d="M9.50519 15.9996C9.45607 15.9996 9.40695 15.9996 9.35846 15.9831C8.81937 15.9014 8.42766 15.3948 8.50932 14.8564L10.5177 0.859925C10.5993 0.320834 11.1059 -0.0708761 11.6443 0.0107845C12.2 0.0758582 12.5758 0.582409 12.4941 1.13744L10.5018 15.1339C10.4201 15.6405 9.9952 15.9996 9.50524 15.9996L9.50519 15.9996Z" fill="#FC495D"/>
</svg>
