<svg color="white" width="13" height="14" viewBox="0 0 13 14" fill="none" xmlns="http://www.w3.org/2000/svg">
<path d="M9 6C9 7.92969 7.42969 9.5 5.5 9.5C3.57031 9.5 2 7.92969 2 6C2 4.07031 3.57031 2.5 5.5 2.5C7.42969 2.5 9 4.07031 9 6ZM13 12.5C13 12.2344 12.8906 11.9766 12.7109 11.7969L10.0312 9.11719C10.6641 8.20312 11 7.10938 11 6C11 2.96094 8.53906 0.5 5.5 0.5C2.46094 0.5 0 2.96094 0 6C0 9.03906 2.46094 11.5 5.5 11.5C6.60938 11.5 7.70313 11.1641 8.61719 10.5312L11.2969 13.2031C11.4766 13.3906 11.7344 13.5 12 13.5C12.5469 13.5 13 13.0469 13 12.5Z" fill="currentColor"/>
</svg>
