<svg width="42" height="42" viewBox="0 0 42 42" fill="none" xmlns="http://www.w3.org/2000/svg">
<path fill-rule="evenodd" clip-rule="evenodd" d="M20.8901 7.71654C13.5236 7.71654 7.58639 13.6693 7.58639 21.0551V37.1496C2.96859 33.2913 0 27.5591 0 21.0551C0 9.37008 9.34555 0 21 0C22.9791 0 24.8482 0.330709 26.6073 0.771654V9.03937C24.8482 8.15748 22.9791 7.71654 20.8901 7.71654ZM34.3037 21.0551C34.3037 28.4409 28.3665 34.3937 21 34.3937C18.911 34.3937 17.0419 33.9527 15.2827 33.0709V41.2283C17.1518 41.7795 19.0209 42 21 42C32.5445 42 42 32.6299 42 20.9449C42 14.4409 39.0314 8.59841 34.4136 4.74014L34.3037 21.0551ZM26.7173 21.0551C26.7173 17.8582 24.1885 15.3228 21 15.3228C17.8115 15.3228 15.2827 17.8582 15.2827 21.0551C15.2827 24.252 17.8115 26.7874 21 26.7874C24.0785 26.7874 26.7173 24.1417 26.7173 21.0551Z" fill="white"/>
</svg>
