<svg width="33" height="27" viewBox="0 0 33 27" fill="none" xmlns="http://www.w3.org/2000/svg">
<path d="M16.3721 0L32.5721 10.0335V25.8234C32.5721 26.21 32.2587 26.5234 31.8721 26.5234C31.4855 26.5234 31.1721 26.21 31.1721 25.8234V10.8132L16.3721 1.64677L1.57212 10.8132V25.8234C1.57212 26.21 1.25872 26.5234 0.872119 26.5234C0.48552 26.5234 0.172119 26.21 0.172119 25.8234V10.0335L16.3721 0Z" fill="#828282"/>
<path d="M8.87212 18.123C8.48552 18.123 8.17212 18.4364 8.17212 18.823C8.17212 19.2096 8.48552 19.523 8.87212 19.523H10.8721C11.2587 19.523 11.5721 19.2096 11.5721 18.823C11.5721 18.4364 11.2587 18.123 10.8721 18.123H8.87212Z" fill="#828282"/>
<path d="M21.1721 18.823C21.1721 18.4364 21.4855 18.123 21.8721 18.123H23.8721C24.2587 18.123 24.5721 18.4364 24.5721 18.823C24.5721 19.2096 24.2587 19.523 23.8721 19.523H21.8721C21.4855 19.523 21.1721 19.2096 21.1721 18.823Z" fill="#828282"/>
<path fill-rule="evenodd" clip-rule="evenodd" d="M4.87207 22.8232H5.87207V23.8232C5.87207 24.9278 6.7675 25.8232 7.87207 25.8232H9.87207C10.9766 25.8232 11.8721 24.9278 11.8721 23.8232V22.8232H20.8721V23.8232C20.8721 24.9278 21.7675 25.8232 22.8721 25.8232H24.8721C25.9766 25.8232 26.8721 24.9278 26.8721 23.8232V22.8232H27.8721V18.8232C27.8721 17.1882 26.891 15.7823 25.4855 15.162L23.5281 11.8138C23.1695 11.2003 22.5122 10.8232 21.8015 10.8232H10.9426C10.232 10.8232 9.57469 11.2003 9.21602 11.8138L7.25866 15.162C5.8531 15.7823 4.87207 17.1882 4.87207 18.8232V22.8232ZM9.87207 24.4232C10.2034 24.4232 10.4721 24.1546 10.4721 23.8232V22.8232H7.27207L7.27207 23.8232C7.27207 24.1546 7.5407 24.4232 7.87207 24.4232H9.87207ZM23.5951 14.8232H9.14904L10.4246 12.5204C10.5322 12.3364 10.7294 12.2232 10.9426 12.2232H21.8015C22.0147 12.2232 22.2119 12.3364 22.3195 12.5204L23.5951 14.8232ZM22.2721 23.8232V22.8232H25.4721V23.8232C25.4721 24.1546 25.2034 24.4232 24.8721 24.4232H22.8721C22.5407 24.4232 22.2721 24.1546 22.2721 23.8232ZM23.8721 16.2232H8.87207C7.43613 16.2232 6.27207 17.3873 6.27207 18.8232V21.4232H26.4721V18.8232C26.4721 17.3873 25.308 16.2232 23.8721 16.2232Z" fill="#828282"/>
</svg>
