<svg width="37" height="25" viewBox="0 0 37 25" fill="none" xmlns="http://www.w3.org/2000/svg">
<path d="M15.7342 6.42407H32.1384C32.5213 6.42407 32.9391 6.50077 33.2474 6.73443C33.5165 6.9384 33.8272 7.35687 33.8272 8.33025V11.1218H14.0454V8.33025C14.0454 7.3524 14.3567 6.93479 14.6245 6.73224C14.932 6.49974 15.3492 6.42407 15.7342 6.42407Z" stroke="#828282" stroke-width="1.5"/>
<path d="M3.90322 12.641V13.391H4.65322H5.91641H34.1542C34.8445 13.391 35.4042 13.9507 35.4042 14.641V23.5028H32.251V18.0622V17.3122H31.501H4.65322H3.90322V18.0622V23.51H0.75V2.26001C0.75 1.56965 1.30964 1.01001 2 1.01001H2.65322C3.34358 1.01001 3.90322 1.56965 3.90322 2.26001V12.641Z" stroke="#828282" stroke-width="1.5"/>
<path d="M11.1236 8.77283C11.1236 10.1396 9.9956 11.2668 8.58012 11.2668C7.16464 11.2668 6.03662 10.1396 6.03662 8.77283C6.03662 7.40608 7.16464 6.27881 8.58012 6.27881C9.9956 6.27881 11.1236 7.40608 11.1236 8.77283Z" stroke="#828282" stroke-width="1.5"/>
</svg>
