<svg width="36" height="27" viewBox="0 0 36 27" fill="none" xmlns="http://www.w3.org/2000/svg">
<path d="M10.9339 8.1388V8.6388H11.4339H35.1839C35.3461 8.6388 35.4756 8.77112 35.4756 8.92668V18.3812C35.4756 22.4362 32.1392 25.76 28.0589 25.76H8.26725C4.18696 25.76 0.850586 22.4362 0.850586 18.3812V8.92668C0.850586 8.77112 0.980088 8.6388 1.14225 8.6388H1.93392H2.43392V8.1388V6.95698C2.43392 6.80143 2.56343 6.6691 2.72559 6.6691C2.88775 6.6691 3.01725 6.80142 3.01725 6.95698V8.1388V8.6388H3.51725H5.89225H6.39225V8.1388V3.01759C6.39225 1.76025 7.39385 0.76001 8.66308 0.76001C9.93232 0.76001 10.9339 1.76025 10.9339 3.01759C10.9339 3.17313 10.8044 3.30546 10.6423 3.30546C10.4801 3.30546 10.3506 3.17314 10.3506 3.01759C10.3506 2.0698 9.60956 1.33577 8.66308 1.33577C7.71661 1.33577 6.97558 2.0698 6.97558 3.01759V8.1388V8.6388H7.47558H9.85058H10.3506V8.1388V6.95698C10.3506 6.80143 10.4801 6.6691 10.6423 6.6691C10.8044 6.6691 10.9339 6.80142 10.9339 6.95698V8.1388ZM26.9756 9.71456V9.21456H26.4756H24.1006H23.6006V9.71456V14.4418V14.9418H24.1006H26.4756H26.9756V14.4418V9.71456ZM23.0172 9.71456V9.21456H22.5172H20.1422H19.6422V9.71456V18.3812V18.8812H20.1422H30.4339H30.9339V18.3812V9.71456V9.21456H30.4339H28.0589H27.5589V9.71456V15.2297C27.5589 15.3853 27.4294 15.5176 27.2672 15.5176H23.3089C23.1468 15.5176 23.0172 15.3853 23.0172 15.2297V9.71456ZM1.93392 9.21456H1.43392V9.71456V18.3812C1.43392 22.1266 4.50972 25.1843 8.26725 25.1843H28.0589C31.8164 25.1843 34.8922 22.1266 34.8922 18.3812V9.71456V9.21456H34.3922H32.0172H31.5172V9.71456V19.1691C31.5172 19.3247 31.3877 19.457 31.2256 19.457H19.3506C19.1884 19.457 19.0589 19.3247 19.0589 19.1691V9.71456V9.21456H18.5589H1.93392Z" stroke="#828282"/>
</svg>
