<svg width="247" height="51" viewBox="0 0 247 51" fill="none" xmlns="http://www.w3.org/2000/svg">
<rect width="246.673" height="50.5894" fill="#19263A"/>
<path fill-rule="evenodd" clip-rule="evenodd" d="M19.669 0L39.3379 23.561V50.5894H29.0759V28.4471L19.669 17.1788L10.2621 28.4471V50.5894H0V23.561L19.669 0Z" fill="#FC495D"/>
<path d="M73.8271 37.5893L71.5181 18.0893H69.2091L64.0011 31.5293L58.6648 18.0893H56.3302L53.9956 37.5893H57.9465L58.9984 27.0593L62.8979 37.5893H65.1299L69.1065 27.0593L70.1327 37.5893H73.8271Z" fill="white"/>
<path d="M88.1208 22.5893H84.683L81.6044 32.0093L78.5001 22.5893H74.6005L74.4209 22.9193L79.7059 36.4193L79.1671 37.7393C78.7567 38.7893 78.1666 38.9393 77.6535 38.9393C77.166 38.9393 76.6786 38.7893 76.3707 38.5793L76.0885 38.7293L75.3702 41.5793L75.4984 41.8793C76.1142 42.2993 76.9095 42.5393 77.8587 42.5393C79.6289 42.5393 81.3735 41.7293 82.528 38.5793L88.326 22.9193L88.1208 22.5893Z" fill="white"/>
<path d="M102.617 18.0893H95.3568V37.5893H99.359V30.8693H102.617C106.85 30.8693 109.082 28.4093 109.082 24.4793C109.082 20.5493 106.799 18.0893 102.617 18.0893ZM102.668 27.2393H99.359V21.9293H102.668C104.028 21.9293 104.977 22.8893 104.977 24.5993C104.977 26.3093 104.028 27.2393 102.668 27.2393Z" fill="white"/>
<path d="M120.214 22.7393C119.547 22.4093 118.854 22.2293 118.059 22.2293C116.571 22.2293 115.365 23.0993 114.519 24.5393V22.5893H111.184V37.5893H115.16V29.5493C115.16 27.5693 116.186 26.1893 117.751 26.1893C118.316 26.1893 118.803 26.2493 119.291 26.5493L119.573 26.3393L120.394 23.0993L120.214 22.7393Z" fill="white"/>
<path d="M127.791 37.9493C131.896 37.9493 134.872 34.6193 134.872 30.0893C134.872 25.5593 131.896 22.2293 127.791 22.2293C123.686 22.2293 120.685 25.5593 120.685 30.0893C120.685 34.6193 123.686 37.9493 127.791 37.9493ZM127.791 33.9893C125.918 33.9893 124.61 32.3393 124.61 30.0893C124.61 27.8393 125.944 26.1893 127.791 26.1893C129.638 26.1893 130.973 27.8393 130.973 30.0893C130.973 32.3393 129.638 33.9893 127.791 33.9893Z" fill="white"/>
<path d="M144.781 22.2293C143.139 22.2293 141.728 22.9193 140.625 24.0293V22.5893H137.29V42.2093H141.266V36.6893C142.241 37.4693 143.447 37.9493 144.781 37.9493C148.527 37.9493 151.195 34.4993 151.195 30.0893C151.195 25.6793 148.501 22.2293 144.781 22.2293ZM144.14 33.9893C142.395 33.9893 141.035 32.5193 141.035 30.0893C141.035 27.6593 142.421 26.1893 144.14 26.1893C146.038 26.1893 147.295 27.8993 147.295 30.0893C147.295 32.2793 146.038 33.9893 144.14 33.9893Z" fill="white"/>
<path d="M166.171 31.1093C166.222 30.7493 166.248 30.3593 166.248 29.9093C166.248 27.6293 165.555 25.7093 164.375 24.3293C163.195 23.0093 161.553 22.2293 159.654 22.2293C155.627 22.2293 152.804 25.5593 152.804 30.1193C152.804 34.7993 155.857 37.9493 159.885 37.9493C161.861 37.9493 164.221 37.1993 165.658 35.2193V34.8593L163.888 32.8793H163.605C162.733 33.9593 161.373 34.5293 160.065 34.5293C158.295 34.5293 156.832 33.3893 156.653 31.1093H166.171ZM159.552 25.4993C160.373 25.4993 161.091 25.8293 161.604 26.4593C162.015 26.9393 162.297 27.6593 162.4 28.4693H156.678C156.884 26.6693 157.961 25.4993 159.552 25.4993Z" fill="white"/>
<path d="M177.663 22.7393C176.996 22.4093 176.303 22.2293 175.508 22.2293C174.02 22.2293 172.814 23.0993 171.967 24.5393V22.5893H168.632V37.5893H172.609V29.5493C172.609 27.5693 173.635 26.1893 175.2 26.1893C175.764 26.1893 176.252 26.2493 176.739 26.5493L177.021 26.3393L177.842 23.0993L177.663 22.7393Z" fill="white"/>
<path d="M187.436 33.5993L187.128 33.4493C186.769 33.8093 186.256 34.0193 185.845 34.0193C184.947 34.0193 184.306 33.4493 184.306 31.8893V26.0093H188.077V22.5893H184.306V17.9093L183.998 17.6993L180.381 18.1493V22.5893H178.149V26.0093H180.381V32.3393C180.381 36.2693 182.638 37.9493 185.153 37.9493C186.384 37.9493 187.513 37.4993 188.385 36.7493L188.513 36.3893L187.436 33.5993Z" fill="white"/>
<path d="M202.642 22.5893H199.204L196.126 32.0093L193.021 22.5893H189.122L188.942 22.9193L194.227 36.4193L193.688 37.7393C193.278 38.7893 192.688 38.9393 192.175 38.9393C191.687 38.9393 191.2 38.7893 190.892 38.5793L190.61 38.7293L189.891 41.5793L190.02 41.8793C190.635 42.2993 191.431 42.5393 192.38 42.5393C194.15 42.5393 195.895 41.7293 197.049 38.5793L202.847 22.9193L202.642 22.5893Z" fill="white"/>
<path d="M217.882 37.9493C220.91 37.9493 223.347 36.3893 224.912 34.1393V33.8093L222.449 31.4093H222.167C221.192 32.7893 219.653 33.7193 217.934 33.7193C215.137 33.7193 212.957 31.2593 212.957 27.8393C212.957 24.4193 215.137 21.9593 217.934 21.9593C219.653 21.9593 221.192 22.8893 222.167 24.2693H222.449L224.912 21.8693V21.5393C223.321 19.2293 220.807 17.7293 217.934 17.7293C212.803 17.7293 208.877 22.0493 208.877 27.8393C208.877 33.6293 212.828 37.9493 217.882 37.9493Z" fill="white"/>
<path d="M233.143 37.9493C237.248 37.9493 240.224 34.6193 240.224 30.0893C240.224 25.5593 237.248 22.2293 233.143 22.2293C229.038 22.2293 226.036 25.5593 226.036 30.0893C226.036 34.6193 229.038 37.9493 233.143 37.9493ZM233.143 33.9893C231.27 33.9893 229.962 32.3393 229.962 30.0893C229.962 27.8393 231.296 26.1893 233.143 26.1893C234.99 26.1893 236.324 27.8393 236.324 30.0893C236.324 32.3393 234.99 33.9893 233.143 33.9893Z" fill="white"/>
<path d="M244.236 37.9493C245.595 37.9493 246.673 36.6593 246.673 35.0993C246.673 33.5093 245.595 32.2193 244.236 32.2193C242.876 32.2193 241.773 33.5093 241.773 35.0993C241.773 36.6593 242.876 37.9493 244.236 37.9493Z" fill="white"/>
</svg>
