<svg width="28" height="23" viewBox="0 0 28 23" fill="none" xmlns="http://www.w3.org/2000/svg">
<path fill-rule="evenodd" clip-rule="evenodd" d="M28 2.73125C26.9695 3.18047 25.8502 3.50391 24.6954 3.62969C25.8858 2.91094 26.7918 1.77891 27.2182 0.431251C26.1167 1.09609 24.8731 1.58125 23.5761 1.83281C22.5279 0.70078 21.0355 1.04859e-06 19.3832 1.04859e-06C16.203 1.04859e-06 13.6447 2.60547 13.6447 5.8039C13.6447 6.25312 13.698 6.70235 13.7868 7.1336C9.02536 6.88203 4.77918 4.58203 1.95431 1.06016C1.45685 1.92266 1.17259 2.91094 1.17259 3.98906C1.17259 6.00156 2.18527 7.78047 3.73096 8.82266C2.78933 8.78672 1.90101 8.51719 1.13705 8.08594V8.15781C1.13705 10.9789 3.10913 13.3148 5.73857 13.8539C5.25888 13.9797 4.74365 14.0516 4.22842 14.0516C3.85532 14.0516 3.49999 14.0156 3.14467 13.9617C3.87309 16.2617 5.9873 17.9328 8.51014 17.9867C6.53806 19.55 4.06853 20.4664 1.38578 20.4664C0.906089 20.4664 0.461927 20.4484 -1.13705e-06 20.3945C2.54061 22.0477 5.5609 23 8.81217 23C19.3655 23 25.1396 14.1594 25.1396 6.48672C25.1396 6.23516 25.1396 5.98359 25.1218 5.73203C26.2411 4.90547 27.2182 3.88125 28 2.73125Z" fill="#F2F2F2"/>
</svg>
