<svg width="26" height="31" viewBox="0 0 26 31" fill="none" xmlns="http://www.w3.org/2000/svg">
<path fill-rule="evenodd" clip-rule="evenodd" d="M16.5614 21.5202V25.1702C16.5614 25.9487 16.3334 26.3292 15.8772 26.3292C15.6141 26.3292 15.3509 26.2082 15.0877 25.9487V20.7417C15.3509 20.4822 15.6141 20.361 15.8772 20.361C16.3334 20.361 16.5614 20.759 16.5614 21.5202ZM22.4912 21.5374V22.3332H20.9123V21.5374C20.9123 20.759 21.1755 20.361 21.7018 20.361C22.2281 20.361 22.4912 20.759 22.4912 21.5374ZM5.54385 17.7663H7.42103V16.1401H1.94738V17.7663H3.78948V27.6093H5.54385V17.7663ZM10.5965 27.6093H12.1579V19.0636H10.5965V25.6027C10.2457 26.0871 9.91227 26.3292 9.59648 26.3292C9.38595 26.3292 9.26315 26.2082 9.22806 25.966C9.21051 25.9141 9.21058 25.7238 9.21058 25.3605V19.0636H7.64916V25.8276C7.64916 26.4331 7.70174 26.831 7.78945 27.0905C7.9298 27.523 8.2982 27.7304 8.80698 27.7304C9.36838 27.7304 9.96495 27.3845 10.5965 26.6753V27.6093ZM18.1228 25.0491V21.6413C18.1228 20.8455 18.0877 20.2745 17.9649 19.9285C17.772 19.2885 17.3333 18.9598 16.7193 18.9598C16.1403 18.9598 15.5965 19.2713 15.0877 19.894V16.1401H13.5263V27.6093H15.0877V26.7789C15.614 27.419 16.1579 27.7304 16.7193 27.7304C17.3333 27.7304 17.772 27.4017 17.9649 26.7789C18.0877 26.4157 18.1228 25.8449 18.1228 25.0491ZM24.0526 24.8761V24.6512H22.4561C22.4561 25.2739 22.4386 25.62 22.4211 25.7065C22.3333 26.1217 22.1052 26.3292 21.7193 26.3292C21.1754 26.3292 20.9123 25.9313 20.9123 25.1355V23.6305H24.0526V21.8488C24.0526 20.9319 23.8948 20.2746 23.579 19.8421C23.1228 19.2539 22.5088 18.9598 21.7193 18.9598C20.9123 18.9598 20.2982 19.2539 19.8421 19.8421C19.5088 20.2746 19.3509 20.9319 19.3509 21.8488V24.8414C19.3509 25.7583 19.5264 26.4331 19.8597 26.8483C20.3158 27.4365 20.9298 27.7304 21.7544 27.7304C22.5789 27.7304 23.2281 27.4191 23.6491 26.8136C23.8421 26.5368 23.9825 26.2255 24.0175 25.8796C24.0526 25.7239 24.0526 25.3778 24.0526 24.8761ZM13.386 9.08202V5.44922C13.386 4.65345 13.1579 4.25552 12.6316 4.25552C12.1228 4.25552 11.8771 4.65345 11.8771 5.44922V9.08202C11.8771 9.87778 12.1228 10.293 12.6316 10.293C13.1579 10.293 13.386 9.87778 13.386 9.08202ZM26 22.0737C26 24.0631 25.9825 26.1909 25.5439 28.1284C25.2106 29.495 24.0877 30.4983 22.7368 30.6367C19.5087 31 16.2456 31 13 31C9.75439 31 6.49126 31 3.26318 30.6367C1.91231 30.4983 0.771901 29.495 0.45611 28.1284C-2.85767e-05 26.1909 -4.50633e-05 24.0631 -4.50633e-05 22.0737C-4.50633e-05 20.067 0.0175159 17.9565 0.45611 16.019C0.789446 14.6524 1.91225 13.649 3.28067 13.4933C6.4912 13.1473 9.75439 13.1473 13 13.1473C16.2456 13.1473 19.5087 13.1473 22.7368 13.4933C24.0877 13.649 25.2281 14.6524 25.5439 16.019C26 17.9565 26 20.067 26 22.0737ZM8.49122 1.95095e-06H10.2807L8.15787 6.90234V11.5903H6.4035V6.90234C6.24561 6.05469 5.89472 4.84366 5.33331 3.23484C4.94735 2.16229 4.56139 1.07255 4.19298 1.95095e-06H6.05267L7.29822 4.54963L8.49122 1.95095e-06ZM14.9825 5.76057V8.78791C14.9825 9.70476 14.8246 10.3968 14.4913 10.8293C14.0527 11.4174 13.4386 11.7114 12.6316 11.7114C11.8421 11.7114 11.2281 11.4174 10.7895 10.8293C10.4561 10.3795 10.2982 9.70476 10.2982 8.78791V5.76057C10.2982 4.84372 10.4561 4.16914 10.7895 3.73667C11.2281 3.14849 11.8421 2.85432 12.6316 2.85432C13.4386 2.85432 14.0527 3.14849 14.4913 3.73667C14.8246 4.16914 14.9825 4.84372 14.9825 5.76057ZM20.8596 2.95818V11.5903H19.2631V10.639C18.6316 11.3656 18.0351 11.7114 17.4561 11.7114C16.9473 11.7114 16.579 11.5039 16.4211 11.0714C16.3334 10.812 16.2807 10.3967 16.2807 9.7739V2.95818H17.8772V9.30697C17.8772 9.67025 17.8772 9.87785 17.8948 9.91244C17.9299 10.1546 18.0526 10.293 18.2631 10.293C18.5789 10.293 18.9123 10.0508 19.2631 9.54916V2.95818H20.8596Z" fill="#F2F2F2"/>
</svg>
